<?xml version="1.0" standalone="no"?><!DOCTYPE svg PUBLIC "-//W3C//DTD SVG 1.1//EN" "http://www.w3.org/Graphics/SVG/1.1/DTD/svg11.dtd"><svg t="1779979611368" class="icon" viewBox="0 0 1024 1024" version="1.1" xmlns="http://www.w3.org/2000/svg" p-id="9707" xmlns:xlink="http://www.w3.org/1999/xlink" width="200" height="200"><path d="M567.372 474.068792a38.78 38.78 0 1 0 75.484111-17.824214 38.78 38.78 0 1 0-75.484111 17.824214Z" p-id="9708" fill="#2c2c2c"></path><path d="M381.174032 474.076242a38.78 38.78 0 1 0 75.484111-17.824214 38.78 38.78 0 1 0-75.484111 17.824214Z" p-id="9709" fill="#2c2c2c"></path><path d="M573.21 751.95c-15.55 0.67-29.5 9.41-36.41 22.8-6.99 13.55-5.58 29.67 3.85 44.23 3.06 4.73 8.2 7.3 13.44 7.3 2.98 0 6-0.83 8.69-2.58 7.42-4.81 9.53-14.71 4.72-22.13-2.17-3.34-4.32-8.16-2.26-12.15 1.61-3.11 5.37-5.32 9.35-5.5 4.42-0.18 8.21 2.09 11.17 6.79 4.71 7.47 14.59 9.71 22.07 5 7.47-4.71 9.71-14.59 5-22.07-9.13-14.47-23.57-22.39-39.62-21.69zM449.43 751.95c-16.06-0.7-30.49 7.21-39.62 21.69-4.71 7.48-2.47 17.36 5 22.07 7.48 4.71 17.35 2.47 22.07-5 2.96-4.7 6.72-6.97 11.17-6.79 3.99 0.17 7.75 2.38 9.35 5.5 2.06 3.99-0.1 8.81-2.26 12.15-4.81 7.41-2.69 17.32 4.72 22.13a15.97 15.97 0 0 0 8.69 2.58c5.24 0 10.38-2.57 13.44-7.3 9.44-14.56 10.84-30.68 3.85-44.23-6.91-13.39-20.86-22.13-36.41-22.8z" p-id="9710" fill="#2c2c2c"></path><path d="M930.49 302.71c11.61-43.52-1.73-82.21-39.67-115-29.02-25.09-71.97-47.31-139.24-72.05-8.23-3.03-17.36 1.13-20.48 9.33-3.12 8.19 0.94 17.37 9.1 20.58 0.21 0.08 21.61 8.59 45.39 26 21.35 15.64 48.7 41.71 57.7 77.13 3.64 14.32-3.21 28.91-17.05 36.31-19.07 10.2-42.63 2.8-63.01-19.8-30.17-33.47-63.43-60.52-96.16-78.22-35.56-19.23-68.67-26.22-95.75-20.2-19.65 4.36-45.33 17.65-59.33 55.64-13.99-37.99-39.68-51.28-59.33-55.64-27.08-6.01-60.19 0.98-95.75 20.2-32.73 17.7-65.99 44.75-96.16 78.22-20.38 22.6-43.93 30.01-63.01 19.8-13.84-7.4-20.69-22-17.05-36.31 17.34-68.23 101.77-102.61 103.1-103.14 8.15-3.21 12.2-12.39 9.09-20.58-3.12-8.19-12.25-12.35-20.48-9.33-67.27 24.74-110.21 46.96-139.24 72.05-37.93 32.79-51.28 71.48-39.66 115 6.5 24.34 19.86 46.3 38.65 63.52 16.39 15.01 36.23 25.8 57.81 31.52-15.09 7.76-28.54 18.41-40.17 31.83-29.49 34.04-40.17 77.98-45.31 99.1-0.8 3.3-1.5 6.16-2.05 8.09-2.11 7.4 1.33 15.25 8.21 18.7 24.19 12.14 48.93 18.2 72.67 18.2 24.93 0 48.76-6.68 69.7-20.03 26.13-16.65 45.78-42.37 57.38-73.63 0.34 1.5 0.67 2.98 1.03 4.49l1.27 5.25c34.09 141.54 34.09 141.54 45.91 189.47l2.33 9.46 0.28 0.78c7.25 20.19 9.08 35.24 5.75 47.36-5.95 21.64-16.27 76.69 16.39 120.47 24.84 33.3 67.95 50.8 128.13 52.04h0.99c60.18-1.24 103.29-18.74 128.13-52.04 32.66-43.78 22.34-98.83 16.39-120.47-3.33-12.12-1.51-27.17 5.75-47.36l0.28-0.78 2.32-9.39c11.83-47.92 11.83-47.92 45.79-188.94l1.41-5.85c0.36-1.51 0.69-3 1.03-4.49 11.59 31.26 31.25 56.99 57.38 73.64 20.94 13.34 44.77 20.03 69.7 20.03 23.74 0 48.48-6.06 72.67-18.2 6.88-3.45 10.32-11.3 8.21-18.7-0.55-1.93-1.25-4.78-2.05-8.08-5.13-21.11-15.82-65.05-45.31-99.1-11.63-13.43-25.08-24.08-40.17-31.84 21.58-5.72 41.42-16.51 57.81-31.52 18.81-17.21 32.18-39.18 38.68-63.52z m-806.06-8.25c-8.42-31.54 1.01-57.77 29.67-82.54 3.55-3.07 7.41-6.12 11.58-9.16-6.87 11.48-12.45 24.15-15.98 38.06-7.22 28.39 6.34 58.17 32.97 72.41 25.4 13.59 65.51 13.75 101.87-26.59 27.76-30.79 58.05-55.51 87.61-71.5 28.69-15.51 54.14-21.43 73.59-17.11 18.45 4.1 30.9 17.45 38.04 40.81 3.74 12.24 2.48 23.56-3.86 34.62-12.15 21.2-43.3 41.95-90.06 60.02-40.78 15.76-84.58 26.14-108.11 31.72-3.69 0.87-6.95 1.65-9.71 2.32-20.69 5.06-44.6 5.35-67.32 0.82-19.12-3.81-36.73-12.7-50.93-25.72-14.29-13.07-24.44-29.73-29.36-48.16z m111.4 232.19c-28.53 18.18-63.39 20.01-99.23 5.47 5.13-20.79 14.56-55.23 37.39-81.58 13.02-15.03 28.95-25.49 47.34-31.1 19.69-6 42.82-6.69 68.91-2.07-0.06 1.61-0.14 3.21-0.24 4.8-1.95 0.12-3.89 0.27-5.82 0.45-6.92 0.65-13.76 1.76-20.5 3.25-13.46 3-26.51 7.73-38.46 14.28-5.97 3.28-11.68 6.97-16.98 11.12-5.3 4.16-10.21 8.71-14.72 13.57-4.53 4.84-8.48 10.12-12.11 15.52l-2.62 4.11c-0.84 1.39-1.61 2.81-2.42 4.21l-1.19 2.1-1.09 2.16-2.16 4.3c-0.06 0.12-0.03 0.27 0.08 0.36 0.13 0.1 0.31 0.08 0.41-0.05l0.01-0.01 2.97-3.75 1.48-1.86 1.57-1.79c1.06-1.19 2.07-2.39 3.15-3.55l3.3-3.38c4.5-4.39 9.18-8.52 14.24-12.07 5.03-3.58 10.29-6.73 15.72-9.42 5.44-2.69 11.08-4.85 16.79-6.6 11.44-3.48 23.28-5.14 35.05-5.29 5.88-0.07 11.76 0.2 17.55 0.86 0.52 0.06 1.04 0.13 1.57 0.2-7.74 33-25.14 59.93-49.99 75.76zM681.45 477l-1.41 5.85C646.1 623.77 646.1 623.77 634.3 671.61l-1.93 7.8c-5.97 16.79-12.89 41.58-6.2 65.88 3.67 13.34 13.71 59.48-11.19 92.85-18.61 24.95-53.26 38.13-102.98 39.18-49.72-1.05-84.37-14.23-102.98-39.18-24.9-33.37-14.86-79.51-11.19-92.85 6.68-24.3-0.23-49.09-6.2-65.88l-1.94-7.87c-11.81-47.84-11.81-47.84-45.87-189.29l-1.27-5.25c-8.46-35.12-10.62-66.16-6.5-92.44 61.15-16.72 143.4-45.96 171.63-95.18 1.65-2.87 3.07-5.78 4.32-8.71 1.25 2.93 2.67 5.84 4.32 8.71 28.23 49.22 110.49 78.46 171.64 95.18 4.12 26.29 1.95 57.31-6.51 92.44z m168.56-26.46c22.83 26.36 32.27 60.79 37.39 81.58-35.84 14.54-70.7 12.71-99.23-5.47-24.83-15.83-42.23-42.73-49.99-75.7 0.52-0.06 1.04-0.14 1.56-0.19 5.8-0.65 11.66-0.9 17.54-0.81 11.76 0.18 23.57 1.87 34.98 5.38 5.7 1.76 11.32 3.93 16.74 6.62 5.41 2.7 10.64 5.86 15.65 9.43 5.03 3.56 9.69 7.69 14.17 12.07l3.29 3.38c1.07 1.15 2.08 2.36 3.13 3.54l1.56 1.79 1.47 1.86 2.95 3.75 0.01 0.01c0.08 0.11 0.23 0.14 0.36 0.08 0.14-0.07 0.2-0.25 0.13-0.39l-2.14-4.3-1.08-2.17-1.18-2.1c-0.8-1.4-1.57-2.82-2.4-4.21l-2.61-4.1c-3.61-5.39-7.54-10.67-12.04-15.51a126.01 126.01 0 0 0-14.65-13.58c-5.28-4.16-10.97-7.86-16.92-11.15-11.92-6.58-24.95-11.34-38.4-14.37-6.73-1.51-13.57-2.64-20.48-3.3-1.94-0.19-3.88-0.34-5.82-0.47-0.1-1.6-0.18-3.22-0.24-4.84 26.09-4.62 49.22-3.93 68.91 2.07 18.39 5.6 34.32 16.07 47.34 31.1z m20.21-107.91c-14.2 13.01-31.82 21.9-50.93 25.72-22.71 4.53-46.62 4.24-67.32-0.82-2.76-0.68-6.03-1.45-9.71-2.32-23.53-5.58-67.33-15.96-108.11-31.72-46.76-18.07-77.9-38.83-90.06-60.02-6.34-11.06-7.6-22.38-3.86-34.62 7.14-23.37 19.59-36.71 38.04-40.81 4.13-0.92 8.53-1.37 13.18-1.37 17.23 0 37.82 6.27 60.42 18.49 29.56 15.98 59.86 40.71 87.62 71.5 36.36 40.34 76.47 40.18 101.87 26.59 26.63-14.25 40.18-44.02 32.97-72.41-3.54-13.91-9.11-26.58-15.98-38.06 4.17 3.04 8.02 6.09 11.58 9.16 28.66 24.77 38.09 51 29.67 82.54-4.95 18.41-15.1 35.07-29.38 48.15z" p-id="9711" fill="#2c2c2c"></path></svg>